<?xml version="1.0" encoding="UTF-8" standalone="no"?>
<!DOCTYPE svg PUBLIC "-//W3C//DTD SVG 1.1//EN" "http://www.w3.org/Graphics/SVG/1.1/DTD/svg11.dtd">
<svg width="100%" height="100%" viewBox="0 0 510 510" version="1.1" xmlns="http://www.w3.org/2000/svg" xmlns:xlink="http://www.w3.org/1999/xlink" xml:space="preserve" xmlns:serif="http://www.serif.com/" style="fill-rule:evenodd;clip-rule:evenodd;stroke-linejoin:round;stroke-miterlimit:2;">
    <g transform="matrix(1,0,0,1,0,44.3)">
        <g transform="matrix(1.00592,0,0,1.00592,20.1183,17.0609)">
            <rect x="-20" y="-61" width="507" height="507" style="fill:none;"/>
        </g>
        <g transform="matrix(1,0,0,1,0,10.7)">
            <rect x="0" y="0" width="510" height="400" style="fill:rgb(53,155,107);"/>
        </g>
        <g transform="matrix(1,0,0,1,-0.0231694,10.7)">
            <g>
                <path d="M343.5,179.6C334.5,131.9 295.6,96 249,96C207.8,96 172.6,124.4 158.8,163.8C52.2,145.4 34.7,321.4 147,325.4C151.7,325.4 156.3,325.1 160.6,324.4C247.7,311.8 257.3,178.6 342.5,179.7L343.6,179.7L343.5,179.6Z" style="fill:url(#_Linear1);fill-rule:nonzero;"/>
                <path d="M160.5,324.4C247.6,311.8 257.2,178.6 342.4,179.7L343.5,179.7C449.6,181.9 429.8,323.9 353.5,324.5C293,324.9 160.5,324.4 160.5,324.4" style="fill:url(#_Linear2);fill-rule:nonzero;"/>
            </g>
            <g>
                <path d="M439.6,102.4C436.4,102 433.5,101.6 430.5,101.4C415.5,100.1 400.7,100.5 386.2,105.1C377.1,108 369.1,112.6 363.4,120.5C358.1,128 355,136.4 353.4,145.4C352.7,149.6 352.3,153.9 352,158.4C366.4,142.5 383.3,129.9 401.5,119C385,132 369.8,146.1 358.3,164.1C358.8,164.4 359.2,164.6 359.5,164.7C373.1,168.2 386.5,168.4 399.4,162C409.9,156.8 417.5,148.9 421.2,137.6C422.6,133.2 423.9,128.8 425.2,124.4C427.6,116.2 432.1,109.4 438.6,103.8C438.8,103.6 439,103.5 439.2,103.3C439.2,103 439.3,102.9 439.6,102.4Z" style="fill:url(#_Linear3);fill-rule:nonzero;"/>
                <path d="M350,74.7C350,75 349.9,75.3 349.9,75.6C350.1,80.6 348.5,85.2 346,89.5C344.6,91.9 343.1,94.3 342,96.8C338.4,104.6 339.5,112.2 343.6,119.5C345.8,123.4 348.9,126.6 352.8,129.4C355.3,124.3 359,120 358.6,113.9C358.3,108.8 358.5,103.6 358.5,98.2C359.3,104.2 360.2,110.1 361,116.2C361.6,115.7 362.1,115.3 362.6,114.9C365.3,112.9 367.9,110.7 370.7,108.9C372.1,108 372.5,107.2 372.2,105.6C371.4,100.4 369.1,95.7 366.2,91.4C362.1,85.2 356.9,79.9 351.1,75.2C350.9,75 350.6,74.8 350.3,74.6C350.4,74.7 350.2,74.7 350,74.7Z" style="fill:url(#_Linear4);fill-rule:nonzero;"/>
            </g>
        </g>
        <g transform="matrix(2.08587,0,0,2.08587,252.398,141.52)">
            <path d="M80.87,63.24C80.583,63.324 80.302,63.427 80.03,63.55C79.97,63.55 79.92,63.55 79.93,63.47C80,63.2 78.76,64.35 78.7,63.91C78.7,63.83 78.76,63.91 78.59,63.91C79.04,63.97 75.81,64.99 75.81,64.91C75.642,64.59 75.673,64.2 75.89,63.91C76.15,63.26 75.34,62.35 75.65,62.62C75.549,62.54 75.49,62.419 75.49,62.29C75.49,62.161 75.549,62.04 75.65,61.96C75.79,62.06 75.65,61.96 75.73,61.65C75.82,61.59 75.56,61.24 75.79,61.36C76.174,60.768 76.284,60.038 76.09,59.36C75.56,58.12 75.79,49.22 76.09,49.56C76.18,48.94 75.61,48.49 75.88,48.03C75.88,47.56 75.46,47.55 75.52,47.23C75.28,46.29 73.96,46.31 74.1,46.11C73.4,46.26 70.82,50.41 70.8,50.52C70.96,50.36 69.05,53.22 69.09,53.23C68.88,53.23 68.65,53.56 68.6,53.99C68.6,54.04 67.52,55.35 67.6,55.09C67.23,55.7 66.8,56.28 66.47,56.9C66.73,56.74 66,57.41 66.11,57.39C66.22,57.37 65.29,59.39 65.28,59.22C65.27,59.05 64.28,60.22 64.13,60.22C63.9,61.17 60.38,58.84 60.31,57.78C60.31,57.78 60.24,56.78 59.77,56.68L57.47,54.59C56.05,52.7 54.93,52.75 52.84,50.92C52.624,50.371 52.342,49.851 52,49.37C51.21,49.57 50.14,50.8 50.36,51.1C50.03,51.24 49.96,50.82 49.83,50.67C49.865,51.724 49.982,52.774 50.18,53.81C50.13,54.2 50.36,56.19 50.45,55.89L50.6,56.06C50.6,56.06 50.36,56.36 50.6,56.55C50.93,57.12 51.6,57.55 51.35,58.31C51.06,58.46 51.35,59.5 51.35,59.16C51.03,60.8 54.88,63.89 54.35,66.08C54.1,66.27 55.09,67.44 54.88,67.38C54.287,67.809 53.602,68.093 52.88,68.21C52.68,68.33 52.47,68.21 52.25,68.21C52.03,68.21 50.25,67.45 49.8,67.78C49.8,67.78 48.35,67.45 48.34,67.52C48.6,67.22 46.7,67.92 46.99,67.3C47.11,66.82 45.34,67.81 45.78,67.55C45.78,67.55 45,67.98 45.02,67.86C45.04,67.74 44.35,67.86 44.52,67.86C44.4,67.86 43.65,67.61 43.76,67.69C43.35,67.41 43.26,67.79 42.76,67.55C42.536,67.633 42.298,67.667 42.06,67.65C41.822,67.633 40.96,67.65 40.96,67.65C40.96,67.65 40.02,67.95 39.96,67.65C39.96,67.65 39.15,68.25 38.91,67.85C39.01,67.52 37.91,68.12 37.78,68.14C37.65,68.16 37.12,67.88 37.22,68.05C37.13,68.05 36.47,68.91 36.47,68.91C36.47,68.91 40.12,71.6 39.56,71.18C39.977,71.498 40.415,71.789 40.87,72.05C40.72,72.44 42.23,72.05 41.99,72.92C43.39,72.1 46.26,75.92 47.27,75.35C47.4,75.35 47.83,76.02 47.97,75.97C47.74,75.77 48.7,76.29 48.4,76.27C48.53,76.42 48.48,76.37 48.94,76.84C50.09,76.84 50.57,77.74 50.94,78.06C52.2,80.48 46.94,82.83 46.51,84.06C46.51,84.13 46.51,84.18 46.42,84.16C46.33,84.14 45.69,84.5 45.6,84.89L44.81,85.89C44.12,85.69 42.34,88.5 41.62,88.89L39.92,89.67C39.774,89.819 39.64,89.979 39.52,90.15C39.384,90.392 39.187,90.596 38.95,90.74C38.531,91.085 38.13,91.452 37.75,91.84L37.48,92.34L37.91,92.53C37.784,92.669 37.676,92.823 37.59,92.99C37.53,93.11 37.38,93.46 37.71,93.53C38.04,93.6 38.25,93.61 38.33,93.77C38.41,93.93 39.78,94.04 39.89,94.02L40.67,93.68C41.682,93.46 42.728,93.46 43.74,93.68C44.844,93.441 45.925,93.107 46.97,92.68C47.07,92.68 48.97,92.03 48.97,92.03C49.48,91.79 50.64,91.6 50.97,91.18C51.599,90.907 52.288,90.8 52.97,90.87C53.13,90.96 57.59,90.03 57.74,89.46C57.948,89.489 58.116,89.645 58.16,89.85C58.181,90.69 58.127,91.53 58,92.36C58,92.13 57.37,92.79 57.59,93.14C58.04,93.28 58.01,93.14 58.29,93.77C58.16,93.48 58.29,95.1 58.29,95.68C58.29,95.99 58.8,97.03 57.98,97.43C57.98,97.43 57.51,98.43 57.49,98.43C57.55,97.95 57.55,98.67 57.49,98.54C57.91,98.34 57.78,99.62 57.69,99.77C57.77,99.57 57.47,100.02 57.44,99.87C56.77,101.19 58.18,101.33 57.37,101.48C57.72,101.59 57.9,103.34 57.88,103.09C57.961,103.667 57.91,104.255 57.73,104.81C57.61,104.44 57.41,105.48 57.47,105.81C57.61,106.47 57.28,107.72 57.91,108.01C57.81,107.75 58.38,108.61 58.38,108.61C59.85,109.23 60.21,107.31 60.87,107C61.09,107 61.34,106.07 61.56,106.14C61.56,106.07 62.46,101.84 63.14,102.06C63.656,101.266 64.117,100.437 64.52,99.58C64.52,99.63 63.96,98.97 65.13,98.46C65.7,98.66 65.97,97.13 66.13,96.27C66.13,95.77 66.52,96.01 66.57,95.48C67.07,94.791 67.467,94.033 67.75,93.23C67.92,93.23 67.94,92.45 68.06,92.56C67.74,92.28 68.33,91.96 68.26,91.72C68.37,91.3 68.33,90.92 68.51,90.96C68.69,90.14 69.2,90.5 69.31,90.57C69.42,90.64 69.89,90.5 69.93,91.1C69.7,91.41 70.69,91.69 70.61,91.88C70.61,91.74 75.37,97.38 76.69,98.47C76.75,98.52 80.46,102.2 80.3,102.16C80.71,102.38 81.05,103.16 81.08,103.07C80.92,103.31 81.79,103.7 81.94,103.7C82.5,104.7 82.53,104.48 82.83,104.31C82.93,104.75 83.67,104.54 83.94,104.68C83.86,104.47 84.53,104.28 84.38,104.05C84.59,104.12 84.25,103.25 84.38,103.36C84.15,102.94 82.74,101.07 82.84,100.73C82.84,100.62 83.04,100.66 83.14,100.73C83.24,100.8 82.96,100.51 82.87,100.43C83.13,100.43 83.18,100.29 83.04,100.02C82.79,100.15 82.44,98.56 82.66,98.33C82.75,97.93 81.51,92.93 80.93,92.44C80.898,91.975 80.815,91.516 80.68,91.07C79.68,90.46 80.52,89.26 79.85,89.07C79.69,89.37 79,88.23 78.9,87.29C78.57,86.7 78.9,85.29 78.68,85.5C78.49,85.28 79.68,84.77 79.98,85.42C82.5,86.42 87.31,84.8 89.05,86.14C89.46,85.37 90.39,85.97 89.89,85.83C89.82,85.92 89.98,85.97 90.09,86C90.752,85.892 91.428,85.892 92.09,86C91.35,85.82 93.18,85.94 93.09,85.91C94.269,85.804 95.414,85.464 96.46,84.91C97.21,84.68 97.07,84.29 97.39,83.58C97.26,84.18 97.58,82.97 96.95,82.58C93.27,81.66 90.34,78.94 86.67,77.98C85.25,77.68 82.95,74.2 81.73,74.42C83.95,71.88 86.11,69.36 88.4,67.21C88.85,66.77 93.4,61.82 93.4,61.88C93.58,61.63 93.83,60.81 93.81,61.16C93.807,60.995 93.747,60.836 93.64,60.71C93.64,60.77 91.92,59.43 91.47,60.27C92.08,60.64 90.25,60.77 89.8,60.88C89.686,60.934 89.554,60.934 89.44,60.88C88.98,60.77 88.38,61.29 88.08,61.36C87.41,60.76 85.72,61.87 84.96,62.13C84.652,62.12 84.345,62.093 84.04,62.05C83.78,62.47 83.79,62.35 83.85,62.31C83.45,62.578 83.012,62.783 82.55,62.92C82.65,62.92 81.98,63.24 81.72,63.18C81.72,63.29 81.62,63.61 81.23,63.53C80.84,63.45 80.97,63.34 80.86,63.46" style="fill:rgb(228,35,19);fill-rule:nonzero;"/>
        </g>
    </g>
    <defs>
        <linearGradient id="_Linear1" x1="0" y1="0" x2="1" y2="0" gradientUnits="userSpaceOnUse" gradientTransform="matrix(1.40528e-14,-229.5,229.5,1.40528e-14,207,325.45)"><stop offset="0" style="stop-color:white;stop-opacity:1"/><stop offset="0" style="stop-color:white;stop-opacity:1"/><stop offset="1" style="stop-color:white;stop-opacity:0.7"/></linearGradient>
        <linearGradient id="_Linear2" x1="0" y1="0" x2="1" y2="0" gradientUnits="userSpaceOnUse" gradientTransform="matrix(8.87636e-15,144.962,-144.962,8.87636e-15,288.701,179.743)"><stop offset="0" style="stop-color:white;stop-opacity:1"/><stop offset="0" style="stop-color:white;stop-opacity:1"/><stop offset="1" style="stop-color:white;stop-opacity:0.7"/></linearGradient>
        <linearGradient id="_Linear3" x1="0" y1="0" x2="1" y2="0" gradientUnits="userSpaceOnUse" gradientTransform="matrix(87.6,0,0,87.6,351.977,133.889)"><stop offset="0" style="stop-color:white;stop-opacity:1"/><stop offset="0" style="stop-color:white;stop-opacity:1"/><stop offset="1" style="stop-color:white;stop-opacity:0.7"/></linearGradient>
        <linearGradient id="_Linear4" x1="0" y1="0" x2="1" y2="0" gradientUnits="userSpaceOnUse" gradientTransform="matrix(32.5512,0,0,32.5512,339.802,101.95)"><stop offset="0" style="stop-color:white;stop-opacity:1"/><stop offset="0" style="stop-color:white;stop-opacity:1"/><stop offset="1" style="stop-color:white;stop-opacity:0.7"/></linearGradient>
    </defs>
</svg>
